<svg width="35" height="35" viewBox="0 0 35 35" fill="none" xmlns="http://www.w3.org/2000/svg">
<path d="M11.7046 32.0832C11.5179 32.0832 11.3313 32.0118 11.1883 31.8703C10.904 31.5859 10.904 31.1236 11.1883 30.8393C12.0808 29.9468 11.7148 28.8647 11.0425 27.1715C10.4183 25.5965 9.64105 23.6365 11.1883 22.0893C11.4727 21.8049 11.935 21.8049 12.2194 22.0893C12.5038 22.3736 12.5038 22.8359 12.2194 23.1203C11.3925 23.9472 11.7483 24.9943 12.3988 26.6334C13.0375 28.2463 13.8338 30.2545 12.2194 31.8703C12.0779 32.0118 11.8913 32.0832 11.7046 32.0832Z" fill="#4A4A4A"/>
<path d="M17.5131 32.0832C17.3265 32.0832 17.1398 32.0118 16.9969 31.8703C16.7125 31.5859 16.7125 31.1236 16.9969 30.8393C17.8894 29.9468 17.5233 28.8647 16.851 27.1715C16.2269 25.5965 15.4496 23.6365 16.9969 22.0893C17.2812 21.8049 17.7435 21.8049 18.0279 22.0893C18.3123 22.3736 18.3123 22.8359 18.0279 23.1203C17.201 23.9472 17.5569 24.9943 18.2073 26.6334C18.846 28.2463 19.6423 30.2545 18.0279 31.8703C17.8865 32.0118 17.6998 32.0832 17.5131 32.0832Z" fill="#4A4A4A"/>
<path d="M23.3231 32.0832C23.1365 32.0832 22.9498 32.0118 22.8069 31.8703C22.5225 31.5859 22.5225 31.1236 22.8069 30.8393C23.6994 29.9468 23.3333 28.8647 22.661 27.1715C22.0369 25.5965 21.2596 23.6365 22.8069 22.0893C23.0912 21.8049 23.5535 21.8049 23.8379 22.0893C24.1223 22.3736 24.1223 22.8359 23.8379 23.1203C23.011 23.9472 23.3669 24.9943 24.0173 26.6334C24.656 28.2463 25.4523 30.2545 23.8379 31.8703C23.6965 32.0118 23.5098 32.0832 23.3231 32.0832Z" fill="#4A4A4A"/>
<path d="M35 13.1248V6.56234C35 4.55275 33.3638 2.9165 31.3542 2.9165H3.64583C1.63625 2.9165 0 4.55275 0 6.56234V13.1248H35ZM31.3542 10.2082C31.7567 10.2082 32.0833 10.5348 32.0833 10.9373C32.0833 11.3398 31.7567 11.6665 31.3542 11.6665C30.9517 11.6665 30.625 11.3398 30.625 10.9373C30.625 10.5348 30.9517 10.2082 31.3542 10.2082ZM26.25 6.56234C26.25 6.15984 26.5767 5.83317 26.9792 5.83317C27.3817 5.83317 27.7083 6.15984 27.7083 6.56234V10.9373C27.7083 11.3398 27.3817 11.6665 26.9792 11.6665C26.5767 11.6665 26.25 11.3398 26.25 10.9373V6.56234ZM21.875 6.56234C21.875 6.15984 22.2017 5.83317 22.6042 5.83317C23.0067 5.83317 23.3333 6.15984 23.3333 6.56234V10.9373C23.3333 11.3398 23.0067 11.6665 22.6042 11.6665C22.2017 11.6665 21.875 11.3398 21.875 10.9373V6.56234ZM17.5 6.56234C17.5 6.15984 17.8267 5.83317 18.2292 5.83317C18.6317 5.83317 18.9583 6.15984 18.9583 6.56234V10.9373C18.9583 11.3398 18.6317 11.6665 18.2292 11.6665C17.8267 11.6665 17.5 11.3398 17.5 10.9373V6.56234ZM13.125 6.56234C13.125 6.15984 13.4517 5.83317 13.8542 5.83317C14.2567 5.83317 14.5833 6.15984 14.5833 6.56234V10.9373C14.5833 11.3398 14.2567 11.6665 13.8542 11.6665C13.4517 11.6665 13.125 11.3398 13.125 10.9373V6.56234ZM8.75 6.56234C8.75 6.15984 9.07667 5.83317 9.47917 5.83317C9.88167 5.83317 10.2083 6.15984 10.2083 6.56234V10.9373C10.2083 11.3398 9.88167 11.6665 9.47917 11.6665C9.07667 11.6665 8.75 11.3398 8.75 10.9373V6.56234ZM4.375 6.56234C4.375 6.15984 4.70167 5.83317 5.10417 5.83317C5.50667 5.83317 5.83333 6.15984 5.83333 6.56234V10.9373C5.83333 11.3398 5.50667 11.6665 5.10417 11.6665C4.70167 11.6665 4.375 11.3398 4.375 10.9373V6.56234Z" fill="#4A4A4A"/>
<path d="M0 14.583V16.7705C0 18.7801 1.63625 20.4163 3.64583 20.4163H31.3542C33.3638 20.4163 35 18.7801 35 16.7705V14.583H0ZM31.3542 17.4997H3.64583C3.24333 17.4997 2.91667 17.173 2.91667 16.7705C2.91667 16.368 3.24333 16.0413 3.64583 16.0413H31.3542C31.7567 16.0413 32.0833 16.368 32.0833 16.7705C32.0833 17.173 31.7567 17.4997 31.3542 17.4997Z" fill="#4A4A4A"/>
</svg>
