<svg width="253" height="84" viewBox="0 0 253 84" fill="none" xmlns="http://www.w3.org/2000/svg">
<g clip-path="url(#clip0_11_5308)" filter="url(#filter0_d_11_5308)">
<path d="M133.121 19.0954C133.121 21.8344 130.901 24.0399 128.146 24.0399C125.392 24.0399 123.173 21.8344 123.173 19.0954C123.173 16.3564 125.316 14.1509 128.146 14.1509C130.979 14.2269 133.121 16.4332 133.121 19.0954ZM112.614 29.0619V30.2794C112.614 30.2794 110.243 27.2348 105.193 27.2348C96.8534 27.2348 90.3484 33.5496 90.3484 42.2978C90.3484 50.9707 96.7769 57.3606 105.193 57.3606C110.32 57.3606 112.614 54.2417 112.614 54.2417V55.5344C112.614 56.1432 113.074 56.5984 113.686 56.5984H119.883V27.9933H113.686C113.074 27.9956 112.614 28.5291 112.614 29.0619ZM112.614 47.395C111.468 49.0692 109.171 50.5147 106.417 50.5147C101.521 50.5147 97.7706 47.4717 97.7706 42.2978C97.7706 37.1245 101.521 34.0816 106.417 34.0816C109.096 34.0816 111.544 35.603 112.614 37.2005V47.395ZM124.474 27.9956H131.819V56.6006H124.474V27.9956ZM234.198 27.2341C229.148 27.2341 226.775 30.2786 226.775 30.2786V14.2269H219.43V56.6006H225.628C226.241 56.6006 226.699 56.0679 226.699 55.5352V54.2424C226.699 54.2424 229.071 57.3614 234.12 57.3614C242.461 57.3614 248.964 50.973 248.964 42.3C248.964 33.6271 242.461 27.2341 234.198 27.2341ZM232.973 50.4379C230.141 50.4379 227.923 48.994 226.775 47.319V37.1245C227.923 35.603 230.371 34.0056 232.973 34.0056C237.87 34.0056 241.619 37.0485 241.619 42.2217C241.619 47.395 237.871 50.4379 232.973 50.4379ZM215.605 39.6363V56.6767H208.259V40.4723C208.259 35.7566 206.728 33.8536 202.599 33.8536C200.381 33.8536 198.085 34.9951 196.628 36.6693V56.6014H189.285V27.9964H195.098C195.71 27.9964 196.17 28.5291 196.17 29.0619V30.2794C198.312 28.0724 201.143 27.2348 203.973 27.2348C207.188 27.2348 209.866 28.1491 212.009 29.9746C214.609 32.1048 215.605 34.8431 215.605 39.6363ZM171.454 27.2341C166.405 27.2341 164.033 30.2786 164.033 30.2786V14.2269H156.688V56.6006H162.885C163.497 56.6006 163.956 56.0679 163.956 55.5352V54.2424C163.956 54.2424 166.329 57.3614 171.378 57.3614C179.719 57.3614 186.222 50.973 186.222 42.3C186.299 33.6263 179.795 27.2341 171.454 27.2341ZM170.23 50.4379C167.399 50.4379 165.181 48.994 164.033 47.319V37.1245C165.181 35.603 167.629 34.0056 170.23 34.0056C175.128 34.0056 178.876 37.0485 178.876 42.2217C178.876 47.395 175.128 50.4379 170.23 50.4379ZM150.337 27.2341C152.555 27.2341 153.703 27.6156 153.703 27.6156V34.3855C153.703 34.3855 147.582 32.3313 143.757 36.6685V56.6759H136.41V27.9956H142.609C143.221 27.9956 143.679 28.5284 143.679 29.0611V30.2786C145.058 28.6803 148.042 27.2341 150.337 27.2341ZM74.0517 54.0137C73.6695 53.1009 73.2866 52.1122 72.9044 51.2747C72.2914 49.906 71.6791 48.6117 71.1448 47.395L71.0684 47.319C65.788 35.907 60.1269 24.3446 54.1579 12.9342L53.9286 12.4767C53.3007 11.293 52.6889 10.101 52.0933 8.90098C51.3274 7.53073 50.563 6.08675 49.3384 4.71649C46.8901 1.67351 43.3701 -0.000732422 39.6216 -0.000732422C35.7951 -0.000732422 32.3523 1.67352 29.8283 4.56375C28.6802 5.93248 27.8378 7.37798 27.0734 8.74823C26.4763 9.94749 25.8645 11.1395 25.2381 12.3239L25.0081 12.7815C19.1162 24.1919 13.3779 35.755 8.09835 47.1662L8.02116 47.3175C7.48609 48.5365 6.87304 49.8292 6.26077 51.1972C5.87858 52.0347 5.49639 52.9474 5.11419 53.9362C4.11896 56.7504 3.81243 59.4134 4.19615 62.1531C5.03774 67.8591 8.86272 72.65 14.1431 74.7818C16.1328 75.6193 18.1989 75.9993 20.3407 75.9993C20.953 75.9993 21.7174 75.9233 22.3304 75.8465C24.856 75.5425 27.4572 74.7065 29.9827 73.261C33.1197 71.5108 36.1039 69.0013 39.4702 65.3496C42.8366 69.0013 45.8972 71.5108 48.9578 73.261C51.4841 74.7065 54.0845 75.5425 56.6092 75.8465C57.2215 75.924 57.9874 75.9993 58.5997 75.9993C60.7423 75.9993 62.8841 75.6193 64.7966 74.7818C70.1534 72.65 73.9019 67.7831 74.7443 62.1531C75.352 59.4909 75.0462 56.8294 74.0517 54.0137ZM39.5444 57.9694C35.4121 52.7962 32.7337 47.9277 31.8164 43.8208C31.4342 42.0705 31.357 40.549 31.5871 39.1795C31.7392 37.962 32.1994 36.8965 32.8117 35.9838C34.2655 33.9311 36.7139 32.6368 39.5451 32.6368C42.3772 32.6368 44.902 33.8543 46.2794 35.9838C46.8916 36.8965 47.3503 37.9628 47.5047 39.1795C47.7332 40.5498 47.6568 42.1465 47.2746 43.8208C46.3535 47.8517 43.6751 52.7209 39.5444 57.9694ZM70.0724 61.5451C69.5373 65.5009 66.8589 68.9253 63.1103 70.4468C61.2743 71.2068 59.2838 71.4355 57.2957 71.2068C55.3832 70.978 53.4692 70.3693 51.481 69.2293C48.7262 67.7063 45.9721 65.3496 42.7579 61.8491C47.8074 55.6879 50.868 50.0572 52.0161 45.0375C52.5519 42.6785 52.6291 40.549 52.3983 38.57C52.0933 36.6685 51.4038 34.9183 50.3329 33.3968C47.9595 29.9723 43.9801 27.9956 39.5436 27.9956C35.1071 27.9956 31.1277 30.0498 28.7558 33.3968C27.6849 34.9183 26.9955 36.6685 26.6897 38.57C26.3839 40.549 26.4596 42.7545 27.0719 45.0375C28.2192 50.0572 31.3563 55.7632 36.3294 61.9251C33.1923 65.4249 30.361 67.7839 27.6062 69.3053C25.6165 70.4468 23.7048 71.0556 21.7923 71.2828C19.7269 71.5116 17.7365 71.2068 15.9769 70.5228C12.2283 69.0013 9.54992 65.5768 9.01485 61.6211C8.78553 59.7196 8.93764 57.8181 9.70356 55.6879C9.93211 54.9264 10.3158 54.1664 10.698 53.2537C11.2339 52.0362 11.8446 50.7419 12.4576 49.4492L12.5348 49.298C17.8137 37.962 23.4755 26.3989 29.3674 15.1404L29.5967 14.6829C30.2097 13.543 30.822 12.3255 31.4335 11.184C32.0458 9.96648 32.7337 8.82497 33.576 7.83547C35.1828 6.01151 37.3246 5.02125 39.6972 5.02125C42.0699 5.02125 44.2117 6.01151 45.8185 7.83547C46.6608 8.82725 47.3487 9.96876 47.961 11.184C48.574 12.3255 49.1863 13.543 49.7971 14.6829L50.0271 15.1404C55.8292 26.4456 61.4158 37.8589 66.784 49.374V49.45C67.397 50.669 67.9321 52.037 68.5444 53.256C68.9266 54.1672 69.3095 54.9272 69.5388 55.6887C70.1496 57.6647 70.3789 59.5677 70.0724 61.5451Z" fill="#4A4A4A"/>
</g>
<defs>
<filter id="filter0_d_11_5308" x="0" y="0" width="253" height="84" filterUnits="userSpaceOnUse" color-interpolation-filters="sRGB">
<feFlood flood-opacity="0" result="BackgroundImageFix"/>
<feColorMatrix in="SourceAlpha" type="matrix" values="0 0 0 0 0 0 0 0 0 0 0 0 0 0 0 0 0 0 127 0" result="hardAlpha"/>
<feOffset dy="4"/>
<feGaussianBlur stdDeviation="2"/>
<feComposite in2="hardAlpha" operator="out"/>
<feColorMatrix type="matrix" values="0 0 0 0 0 0 0 0 0 0 0 0 0 0 0 0 0 0 0.25 0"/>
<feBlend mode="normal" in2="BackgroundImageFix" result="effect1_dropShadow_11_5308"/>
<feBlend mode="normal" in="SourceGraphic" in2="effect1_dropShadow_11_5308" result="shape"/>
</filter>
<clipPath id="clip0_11_5308">
<rect width="245" height="76" fill="white" transform="translate(4)"/>
</clipPath>
</defs>
</svg>
