<svg width="30" height="30" viewBox="0 0 30 30" fill="none" xmlns="http://www.w3.org/2000/svg">
<path d="M28.125 18.75H1.875C0.84125 18.75 0 19.5912 0 20.625V28.125C0 28.47 0.28 28.75 0.625 28.75H3.125C3.47 28.75 3.75 28.47 3.75 28.125V26.25H26.25V28.125C26.25 28.47 26.53 28.75 26.875 28.75H29.375C29.72 28.75 30 28.47 30 28.125V20.625C30 19.5912 29.1588 18.75 28.125 18.75ZM1.62625 17.5275C1.63875 17.5263 1.8625 17.5012 1.875 17.5L28.2225 17.51C28.2337 17.5112 28.3612 17.5263 28.3737 17.5275C28.39 17.5287 28.4063 17.5287 28.4225 17.5287C28.4313 17.5287 28.4412 17.53 28.4475 17.5287C28.7925 17.5287 29.0725 17.2487 29.0725 16.9037C29.0725 16.7775 29.0362 16.6613 28.9725 16.5638L27.5 11.7825V4.375C27.5 2.6525 26.0987 1.25 24.375 1.25H5.625C3.90125 1.25 2.5 2.6525 2.5 4.375V11.7825L0.98 16.7212C0.91875 16.9187 0.95875 17.135 1.08875 17.295C1.21875 17.455 1.42 17.5413 1.62625 17.5275ZM4.375 11.25H5.44875L6.03125 8.92C6.24125 8.08375 6.99 7.5 7.85125 7.5H11.875C12.9087 7.5 13.75 8.34125 13.75 9.375V11.25H16.25V9.375C16.25 8.34125 17.0912 7.5 18.125 7.5H22.1488C23.01 7.5 23.7587 8.08375 23.9688 8.92L24.5513 11.25H25.625C25.97 11.25 26.25 11.53 26.25 11.875C26.25 12.22 25.97 12.5 25.625 12.5H24.5312C24.465 12.6875 24.3787 12.8675 24.2525 13.03C23.8938 13.4875 23.355 13.75 22.7738 13.75H18.125C17.3113 13.75 16.6238 13.2262 16.365 12.5H13.635C13.3763 13.2262 12.6888 13.75 11.875 13.75H7.22625C6.645 13.75 6.10625 13.4875 5.7475 13.03C5.62125 12.8687 5.535 12.6875 5.46875 12.5H4.375C4.03 12.5 3.75 12.22 3.75 11.875C3.75 11.53 4.03 11.25 4.375 11.25Z" fill="#4A4A4A"/>
</svg>
