<svg width="259" height="129" viewBox="0 0 259 129" fill="none" xmlns="http://www.w3.org/2000/svg">
<mask id="mask0_11_5271" style="mask-type:luminance" maskUnits="userSpaceOnUse" x="4" y="43" width="251" height="43">
<path d="M4.71631 43.0029H254.327V85.194H4.71631V43.0029Z" fill="white"/>
</mask>
<g mask="url(#mask0_11_5271)">
<mask id="mask1_11_5271" style="mask-type:luminance" maskUnits="userSpaceOnUse" x="4" y="43" width="251" height="43">
<path d="M4.71631 85.194H254.327V43.0029H4.71631V85.194Z" fill="white"/>
</mask>
<g mask="url(#mask1_11_5271)">
<path d="M102.601 47.6206C102.601 46.6186 103 45.6575 103.712 44.9489C104.423 44.2403 105.388 43.8423 106.394 43.8423C107.4 43.8423 108.364 44.2403 109.076 44.9489C109.787 45.6575 110.187 46.6186 110.187 47.6206C110.15 48.5983 109.734 49.5238 109.027 50.2026C108.32 50.8814 107.376 51.2606 106.394 51.2606C105.412 51.2606 104.468 50.8814 103.76 50.2026C103.053 49.5238 102.637 48.5983 102.601 47.6206Z" fill="#4A4A4A"/>
<path d="M162.447 72.8195C162.447 70.7225 164.143 69.0306 166.232 69.0306C166.985 69.027 167.722 69.2461 168.35 69.6602C168.978 70.0743 169.468 70.6648 169.759 71.3568C170.05 72.0488 170.128 72.8112 169.983 73.5474C169.838 74.2835 169.478 74.9604 168.946 75.4921C168.415 76.0238 167.738 76.3865 166.999 76.5342C166.261 76.6819 165.495 76.608 164.799 76.3218C164.103 76.0355 163.508 75.5499 163.089 74.9264C162.67 74.303 162.447 73.5697 162.447 72.8195Z" fill="#8D8F8E"/>
<path d="M40.3751 71.1803C37.1103 71.1803 34.8387 68.5965 34.8387 64.9023C34.8387 61.2081 37.1103 58.6296 40.3777 58.6296C43.6609 58.6296 45.9563 61.2081 45.9563 64.9023C45.9563 68.6544 43.7112 71.1803 40.3751 71.1803ZM40.3751 53.112C33.4652 53.112 28.4492 58.0718 28.4492 64.8997C28.4492 71.7276 33.4679 76.6874 40.3751 76.6874C47.314 76.6874 52.3485 71.7302 52.3485 64.8997C52.3485 58.0691 47.3139 53.1067 40.3777 53.1067M95.2789 65.4891C95.0384 65.0257 94.7343 64.598 94.3754 64.2182L94.1642 63.9998L94.3861 63.7893C94.7346 63.4209 95.0526 63.0249 95.3369 62.6053L101.412 53.5751H94.0057L89.4228 60.6398C89.164 61.0187 88.6411 61.2081 87.8566 61.2081H86.8132V47.8522C86.8132 45.1816 85.1413 44.8185 83.3372 44.8185H80.2467L80.2547 76.3401H86.8158V66.8836H87.4313C88.1788 66.8836 88.686 66.9704 88.9211 67.3756L92.5398 74.1799C93.5515 76.027 94.5578 76.3374 96.4543 76.3374H101.481L97.7353 70.1699L95.2524 65.4864M127.1 53.0515C123.761 53.0515 121.632 54.5302 120.438 55.78L120.042 56.1799L119.899 55.6353C119.55 54.2934 118.367 53.5619 116.59 53.5619H113.65L113.668 76.3295H120.185V65.8364C120.185 64.8102 120.317 63.9209 120.591 63.1078C121.315 60.6477 123.338 59.119 125.866 59.119C127.9 59.119 128.692 60.1899 128.692 62.9526V72.8722C128.692 75.2297 129.788 76.3322 132.158 76.3322H135.259L135.248 61.8501C135.248 56.0984 132.43 53.0567 127.097 53.0567M106.494 53.5724H103.404L103.425 76.3401H106.719L106.835 76.3453L108.372 76.3401H109.899V76.3322H109.909L109.923 57.0324C109.923 54.7038 108.805 53.5724 106.494 53.5724ZM65.9622 71.1777C62.6974 71.1777 60.4233 68.5939 60.4233 64.8997C60.4233 61.2055 62.6947 58.6269 65.9648 58.6269C69.2348 58.6269 71.5434 61.2055 71.5434 64.8997C71.5434 68.6517 69.2956 71.1777 65.9622 71.1777ZM65.9622 53.1093C59.0471 53.1093 54.0284 58.0691 54.0284 64.897C54.0284 71.725 59.0471 76.6847 65.9675 76.6847C72.8879 76.6847 77.9408 71.7276 77.9408 64.897C77.9408 58.0665 72.9223 53.1041 65.9675 53.1041" fill="#4A4A4A"/>
</g>
</g>
<mask id="mask2_11_5271" style="mask-type:luminance" maskUnits="userSpaceOnUse" x="4" y="43" width="251" height="43">
<path d="M4.71631 43.0029H254.327V85.194H4.71631V43.0029Z" fill="white"/>
</mask>
<g mask="url(#mask2_11_5271)">
<mask id="mask3_11_5271" style="mask-type:luminance" maskUnits="userSpaceOnUse" x="4" y="43" width="251" height="43">
<path d="M4.71631 43.8344H254.274V85.1387H4.71631V43.8344Z" fill="white"/>
</mask>
<g mask="url(#mask3_11_5271)">
<mask id="mask4_11_5271" style="mask-type:luminance" maskUnits="userSpaceOnUse" x="4" y="43" width="251" height="43">
<path d="M4.71631 85.194H254.327V43.0029H4.71631V85.194Z" fill="white"/>
</mask>
<g mask="url(#mask4_11_5271)">
<path d="M205.606 71.1803C202.342 71.1803 200.065 68.5965 200.065 64.9023C200.065 61.2081 202.342 58.6296 205.606 58.6296C208.887 58.6296 211.188 61.2081 211.188 64.9023C211.188 68.6544 208.942 71.1803 205.606 71.1803ZM205.606 53.112C198.691 53.112 193.675 58.0718 193.675 64.8997C193.675 71.7276 198.694 76.6874 205.606 76.6874C212.537 76.6874 217.58 71.7302 217.58 64.8997C217.58 58.0691 212.561 53.1067 205.606 53.1067" fill="#8D8F8E"/>
<path d="M148.994 70.1778C145.428 70.1778 144.16 67.0835 144.16 64.1787C144.16 62.9 144.485 58.7322 148.65 58.7322C150.718 58.7322 153.473 59.3216 153.473 64.3892C153.473 69.1701 151.035 70.1726 148.991 70.1726L148.994 70.1778ZM156.86 53.5172C155.623 53.5172 154.672 54.0092 154.218 54.9064L154.039 55.2537L153.738 54.9906C152.686 54.0855 150.8 53.0093 147.742 53.0093C141.648 53.0093 137.546 57.5692 137.546 64.3498C137.546 71.1303 141.79 75.8638 147.863 75.8638C149.936 75.8638 151.577 75.3797 152.876 74.4009L153.405 74.0246V74.6561C153.405 77.6977 151.432 79.3764 147.853 79.3764C146.356 79.3586 144.873 79.0863 143.468 78.5713C142.089 78.1556 141.275 78.5003 140.721 79.8816L140.203 81.1551L139.471 83.018L139.92 83.2548C142.213 84.4651 145.195 85.1887 147.889 85.1887C153.436 85.1887 159.918 82.3602 159.918 74.4009L159.945 53.5172H156.86Z" fill="#4A4A4A"/>
</g>
</g>
</g>
<mask id="mask5_11_5271" style="mask-type:luminance" maskUnits="userSpaceOnUse" x="4" y="43" width="251" height="43">
<path d="M4.71631 43.0029H254.327V85.194H4.71631V43.0029Z" fill="white"/>
</mask>
<g mask="url(#mask5_11_5271)">
<mask id="mask6_11_5271" style="mask-type:luminance" maskUnits="userSpaceOnUse" x="4" y="43" width="251" height="43">
<path d="M4.71631 85.194H254.327V43.0029H4.71631V85.194Z" fill="white"/>
</mask>
<g mask="url(#mask6_11_5271)">
<path d="M16.0873 70.9199L10.7834 70.9146V64.5998C10.7834 63.2473 11.3117 62.5474 12.4686 62.3843H16.0873C18.6679 62.3843 20.3136 64.0051 20.3136 66.6284C20.311 69.3227 18.6838 70.9172 16.0873 70.9172V70.9199ZM10.7834 53.8803V52.2174C10.7834 50.7624 11.4015 50.0704 12.7566 49.9809H15.4719C17.7963 49.9809 19.1698 51.3675 19.1698 53.6909C19.1698 55.459 18.2136 57.5245 15.5326 57.5245H10.7597L10.7834 53.8803ZM22.8599 60.1846L21.9009 59.6479L22.7383 58.9375C23.7156 58.1034 25.3428 56.2273 25.3428 52.991C25.3428 48.0338 21.4863 44.8343 15.5168 44.8343H7.92552C7.07133 44.8653 6.26176 45.2226 5.66477 45.8319C5.06779 46.4413 4.72904 47.2561 4.71875 48.1075V76.2349H15.6541C22.2919 76.2349 26.5762 72.6354 26.5762 67.0599C26.5762 64.0604 25.1921 61.4923 22.865 60.1873" fill="#4A4A4A"/>
<path d="M246.685 53.1383C245.34 53.1432 244.013 53.4492 242.802 54.0335C241.592 54.6178 240.528 55.4655 239.691 56.5141L239.221 57.1088L238.851 56.4431C237.641 54.2513 235.565 53.1383 232.678 53.1383C229.648 53.1383 227.617 54.8223 226.674 55.8221L226.056 56.4878L225.792 55.6116C225.448 54.3486 224.321 53.6566 222.614 53.6566H219.875L219.849 76.3374H226.069V66.3258C226.073 65.4318 226.183 64.5414 226.399 63.6736C226.994 61.2529 228.626 58.648 231.37 58.9111C233.061 59.0742 233.89 60.3767 233.89 62.8921V76.3374H240.156V66.3258C240.132 65.4003 240.25 64.4766 240.507 63.5867C241.035 61.2765 242.715 58.9085 245.362 58.9085C247.279 58.9085 247.987 59.9873 247.987 62.8921V73.0221C247.987 75.3113 249.012 76.3374 251.315 76.3374H254.242L254.247 61.858C254.247 56.0694 251.691 53.1383 246.661 53.1383M190.046 68.4623C190.027 68.4886 187.352 71.2961 183.826 71.2961C180.614 71.2961 177.37 69.3332 177.37 64.9549C177.37 61.1713 179.885 58.527 183.488 58.527C184.655 58.527 185.986 58.9427 186.195 59.6452L186.221 59.7636C186.354 60.2473 186.644 60.6737 187.045 60.9767C187.446 61.2797 187.937 61.4425 188.44 61.4397L191.874 61.4449V58.477C191.874 54.5618 186.874 53.1409 183.511 53.1409C176.316 53.1409 171.097 58.1297 171.097 65.0023C171.097 71.875 176.258 76.8531 183.379 76.8531C189.555 76.8531 192.888 72.809 192.946 72.7696L193.126 72.5485L190.426 68.0887L190.07 68.4649" fill="#8D8F8E"/>
</g>
</g>
</svg>
