<svg width="30" height="30" viewBox="0 0 30 30" fill="none" xmlns="http://www.w3.org/2000/svg">
<path d="M8.39375 14.375H21.6038C22.4338 11.975 24.66 9.41875 27.4362 9.38C27.1312 7.26375 25.3238 5.625 23.1238 5.625H6.87375C4.67375 5.625 2.86625 7.2625 2.56125 9.38C5.3375 9.41875 7.56375 11.975 8.39375 14.375ZM17.4987 8.75C17.4987 8.405 17.7787 8.125 18.1237 8.125C18.4687 8.125 18.7487 8.405 18.7487 8.75C18.7862 8.9225 19.0487 9.27375 19.3712 9.6275C19.6962 9.2675 19.9625 8.905 20.0012 8.71625C20.0012 8.37125 20.28 8.10875 20.625 8.10875C20.97 8.10875 21.2488 8.405 21.2488 8.75C21.2488 9.18375 20.84 9.8525 20.2975 10.4625C20.4275 10.5487 20.5475 10.615 20.6325 10.6263C20.9775 10.6263 21.2538 10.9063 21.2538 11.2513C21.2538 11.5963 20.9688 11.8763 20.6238 11.8763C20.2638 11.8763 19.8162 11.645 19.3737 11.3163C18.9312 11.645 18.4837 11.8763 18.1237 11.8763C17.7787 11.8763 17.4987 11.5963 17.4987 11.2513C17.4987 10.9088 17.7763 10.6288 18.1175 10.6263C18.2025 10.615 18.3213 10.5488 18.45 10.4638C17.9075 9.8525 17.4987 9.18375 17.4987 8.75ZM8.74875 8.75C8.74875 8.405 9.02875 8.125 9.37375 8.125C9.71875 8.125 9.99875 8.405 9.99875 8.75C10.0363 8.9225 10.2987 9.27375 10.6212 9.6275C10.9462 9.2675 11.2125 8.905 11.2513 8.71625C11.2513 8.37125 11.53 8.10875 11.875 8.10875C12.22 8.10875 12.4987 8.405 12.4987 8.75C12.4987 9.18375 12.09 9.8525 11.5475 10.4625C11.6775 10.5487 11.7975 10.615 11.8825 10.6263C12.2275 10.6263 12.5038 10.9063 12.5038 11.2513C12.5038 11.5963 12.2187 11.8763 11.8737 11.8763C11.5137 11.8763 11.0662 11.645 10.6237 11.3163C10.1812 11.645 9.73375 11.8763 9.37375 11.8763C9.02875 11.8763 8.74875 11.5963 8.74875 11.2513C8.74875 10.9088 9.02625 10.6288 9.3675 10.6263C9.4525 10.615 9.57125 10.5488 9.7 10.4638C9.1575 9.8525 8.74875 9.18375 8.74875 8.75ZM27.6137 15.6362C27.615 15.6325 27.6162 15.625 27.6175 15.6212C28.9412 15.5587 29.9975 14.4625 29.9975 13.1237C29.9975 11.745 28.8762 10.6237 27.4975 10.6237C27.2612 10.6237 27.0338 10.6563 26.8088 10.7025C26.7713 10.71 26.735 10.72 26.6987 10.7288C25.7387 10.9588 24.8913 11.5737 24.2138 12.3525C24.1875 12.3825 24.1637 12.415 24.1375 12.445C24.0287 12.575 23.9238 12.7075 23.8238 12.8437C23.7463 12.9475 23.6725 13.0525 23.6 13.16C23.5987 13.1625 23.5962 13.165 23.595 13.1675C23.335 13.5588 23.1075 13.965 22.935 14.3737H22.9538C22.7688 14.81 22.6375 15.2337 22.5662 15.6237H7.4325C7.36125 15.2337 7.23 14.81 7.045 14.3737H7.06375C6.89125 13.965 6.66375 13.5588 6.40375 13.1675C6.4025 13.165 6.4 13.1625 6.39875 13.16C6.3275 13.0525 6.2525 12.9487 6.175 12.8437C6.075 12.7075 5.97 12.575 5.86125 12.445C5.835 12.415 5.81125 12.3825 5.785 12.3525C5.1075 11.575 4.25875 10.9588 3.3 10.7288C3.26375 10.72 3.22625 10.71 3.19 10.7025C2.965 10.6563 2.7375 10.6237 2.50125 10.6237C1.1225 10.6237 0.00125 11.745 0.00125 13.1237C0.00125 14.4625 1.05875 15.5575 2.38 15.6212C2.38125 15.625 2.3825 15.6325 2.38375 15.6362C1.06125 15.6987 0 16.785 0 18.125C0 19.5038 1.12125 20.625 2.5 20.625V22.5C2.5 23.5338 3.34125 24.375 4.375 24.375H5.625C6.65875 24.375 7.5 23.5338 7.5 22.5V20.625H22.5V22.5C22.5 23.5338 23.3412 24.375 24.375 24.375H25.625C26.6588 24.375 27.5 23.5338 27.5 22.5V20.625C28.8788 20.625 30 19.5038 30 18.125C29.9987 16.7863 28.9375 15.6987 27.6137 15.6362Z" fill="black"/>
</svg>
