<svg width="30" height="30" viewBox="0 0 30 30" fill="none" xmlns="http://www.w3.org/2000/svg">
<path d="M14.0212 0.5325C13.9762 0.225 13.7125 0 13.4037 0C13.3975 0 13.39 0 13.3825 0C13.065 0.01 12.8062 0.25625 12.7812 0.5725L12.2337 7.13875C12.2 7.54375 11.4812 7.54375 11.4475 7.13875L10.9012 0.5725C10.8737 0.24875 10.6037 0 10.2787 0C9.95375 0 9.6825 0.24875 9.65625 0.5725L9.10875 7.13875C9.075 7.54375 8.35625 7.54375 8.3225 7.13875L7.77625 0.5725C7.75 0.2575 7.49125 0.01125 7.17375 0C7.16625 0 7.16 0 7.15375 0C6.845 0 6.58125 0.225 6.53625 0.5325L5.4025 8.095C5.06875 10.3112 6.27125 12.4313 8.29875 13.315L7.33375 26.84C7.27625 27.6537 7.56125 28.4625 8.1175 29.06C8.6725 29.6575 9.45875 30 10.2762 30H10.2812C11.0975 30 11.885 29.6575 12.4412 29.06C12.9975 28.4625 13.2825 27.6537 13.225 26.84L12.26 13.315C14.2875 12.4313 15.49 10.3112 15.1562 8.095L14.0212 0.5325Z" fill="#4A4A4A"/>
<path d="M24.3887 0.115006C24.2237 -0.00249374 24.0112 -0.0299937 23.82 0.0362563C23.7662 0.0550063 18.4037 2.02501 18.4037 8.12501C18.4037 12.5163 19.8325 14.7338 20.6362 15.6338L19.8362 16.4338C19.7337 16.5363 19.67 16.67 19.6562 16.8138L18.6675 26.7025C18.5825 27.5438 18.8587 28.3863 19.4262 29.0138C19.9937 29.6413 20.8075 30 21.6525 30C23.3062 30 24.6525 28.6538 24.6525 27V0.625006C24.6537 0.421256 24.555 0.232506 24.3887 0.115006Z" fill="#4A4A4A"/>
</svg>
