<svg width="30" height="30" viewBox="0 0 30 30" fill="none" xmlns="http://www.w3.org/2000/svg">
<path d="M22.8625 16.6175C22.7825 16.4225 22.61 16.2812 22.4038 16.2412L13.64 14.53C13.4762 14.4962 13.3013 14.5337 13.1588 14.6337C13.02 14.7325 12.9262 14.8837 12.9025 15.0525L11.3437 25.5987C11.28 25.83 11.25 26.0425 11.25 26.25C11.25 27.6287 12.3712 28.75 13.75 28.75C14.87 28.75 15.8612 27.9862 16.1575 26.915L22.8 17.2075C22.9187 17.0337 22.9425 16.8125 22.8625 16.6175ZM20.6962 18.07L15.0637 26.3012C14.9412 26.4787 14.7462 26.5737 14.5475 26.5737C14.425 26.5737 14.3025 26.5387 14.195 26.465C13.91 26.27 13.8375 25.8812 14.0313 25.5962L19.6637 17.365C19.8612 17.08 20.2525 17.0075 20.5325 17.2025C20.8163 17.3962 20.89 17.785 20.6962 18.07Z" fill="black"/>
<path d="M21.875 1.25C19.3637 1.25 16.2775 2.0225 13.5563 2.705C11.4113 3.2425 9.385 3.75 8.125 3.75C7.78 3.75 7.5 4.03 7.5 4.375V14.375C7.5 14.72 7.78 15 8.125 15C10.4825 15 13.4862 15.7525 16.1375 16.415C17.8412 16.8412 19.4512 17.245 20.73 17.4112C20.885 17.4337 21.0412 17.4537 21.195 17.4662C21.435 17.4875 21.6638 17.5 21.875 17.5C26.355 17.5 30 13.855 30 9.375C30 4.895 26.355 1.25 21.875 1.25ZM21.875 13.75C19.4625 13.75 17.5 11.7875 17.5 9.375C17.5 6.9625 19.4625 5 21.875 5C24.2875 5 26.25 6.9625 26.25 9.375C26.25 11.7875 24.2875 13.75 21.875 13.75Z" fill="black"/>
<path d="M19.3912 11.25C19.9625 12.0037 20.8587 12.5 21.875 12.5C22.8912 12.5 23.7887 12.0037 24.3587 11.25H19.3912Z" fill="black"/>
<path d="M24.3587 7.5C23.7875 6.74625 22.8912 6.25 21.875 6.25C20.8587 6.25 19.9612 6.74625 19.3912 7.5H24.3587Z" fill="black"/>
<path d="M25 9.375C25 9.16125 24.9775 8.9525 24.9362 8.75H18.8125C18.7725 8.9525 18.75 9.16125 18.75 9.375C18.75 9.58875 18.7725 9.7975 18.8137 10H24.9375C24.9775 9.7975 25 9.58875 25 9.375Z" fill="black"/>
<path d="M1.83998 10.6125C1.34498 10.6125 0.788728 10.4037 0.183728 9.7975C-0.060022 9.55375 -0.060022 9.1575 0.183728 8.91375C0.427478 8.67 0.823728 8.67 1.06748 8.91375C1.77998 9.6275 2.08123 9.405 2.80248 8.86875C3.49373 8.355 4.65248 7.4975 6.06748 8.91375C6.31123 9.1575 6.31123 9.55375 6.06748 9.7975C5.82373 10.0412 5.42748 10.0412 5.18373 9.7975C4.52873 9.14375 4.26123 9.3425 3.54623 9.8725C3.12998 10.1812 2.54873 10.6125 1.83998 10.6125Z" fill="black"/>
<path d="M1.83998 13.7475C1.34498 13.7475 0.788728 13.5387 0.183728 12.9325C-0.060022 12.6887 -0.060022 12.2925 0.183728 12.0487C0.427478 11.805 0.823728 11.805 1.06748 12.0487C1.77998 12.7625 2.08123 12.54 2.80248 12.0037C3.49373 11.4887 4.65248 10.6337 6.06748 12.0487C6.31123 12.2925 6.31123 12.6887 6.06748 12.9325C5.82373 13.1762 5.42748 13.1762 5.18373 12.9325C4.52873 12.2787 4.26123 12.4775 3.54623 13.0075C3.12998 13.3162 2.54873 13.7475 1.83998 13.7475Z" fill="black"/>
<path d="M1.83998 7.49749C1.34498 7.49749 0.788728 7.28874 0.183728 6.68249C-0.060022 6.43874 -0.060022 6.04249 0.183728 5.79874C0.427478 5.55499 0.823728 5.55499 1.06748 5.79874C1.77998 6.51249 2.08123 6.28999 2.80248 5.75374C3.49373 5.23999 4.65248 4.38374 6.06748 5.79874C6.31123 6.04249 6.31123 6.43874 6.06748 6.68249C5.82373 6.92624 5.42748 6.92624 5.18373 6.68249C4.52873 6.02999 4.26123 6.22749 3.54623 6.75749C3.12998 7.06624 2.54873 7.49749 1.83998 7.49749Z" fill="black"/>
</svg>
