<svg width="30" height="30" viewBox="0 0 30 30" fill="none" xmlns="http://www.w3.org/2000/svg">
<g clip-path="url(#clip0_5_11579)">
<path d="M18.2625 9.76413C18.3875 9.91913 18.5675 9.99913 18.7513 9.99913C18.8888 9.99913 19.0275 9.95413 19.1425 9.86163C19.4125 9.64663 19.455 9.25288 19.24 8.98288C18.595 8.17913 18.595 6.82163 19.2425 6.01413C20.2588 4.74413 20.2588 2.75538 19.2425 1.48538C19.0263 1.21538 18.6313 1.17288 18.3638 1.38788C18.0938 1.60288 18.0513 1.99663 18.2663 2.26663C18.9113 3.07163 18.9113 4.42913 18.2638 5.23538C17.2463 6.50538 17.2463 8.49413 18.2625 9.76413Z" fill="#4A4A4A"/>
<path d="M14.5087 9.76381C14.6325 9.91881 14.8137 9.99881 14.9975 9.99881C15.1337 9.99881 15.2725 9.95381 15.3875 9.86131C15.6562 9.64631 15.7 9.25256 15.485 8.98256C14.8412 8.17881 14.8412 6.82006 15.4862 6.01381C16.5025 4.74381 16.5025 2.75506 15.4862 1.48506C15.2712 1.21631 14.8787 1.17006 14.6075 1.38756C14.3387 1.60256 14.295 1.99631 14.51 2.26631C15.1537 3.07131 15.1537 4.42881 14.5075 5.23506C13.4925 6.50506 13.4925 8.49381 14.5087 9.76381Z" fill="#4A4A4A"/>
<path d="M10.7637 9.76391C10.8875 9.91766 11.0687 9.99766 11.2525 9.99766C11.3887 9.99766 11.5275 9.95266 11.6425 9.86016C11.9125 9.64516 11.955 9.25141 11.74 8.98141C11.095 8.17766 11.095 6.82016 11.7412 6.01391C12.7575 4.74391 12.7575 2.75516 11.7412 1.48516C11.5262 1.21516 11.1325 1.17141 10.8625 1.38641C10.5937 1.60266 10.55 1.99641 10.765 2.26641C11.4087 3.07016 11.4087 4.42891 10.7637 5.23516C9.74624 6.50516 9.74624 8.49391 10.7637 9.76391Z" fill="#4A4A4A"/>
<path d="M26.25 19.9976C28.3175 19.9976 30 18.3151 30 16.2476C30 14.1801 28.3175 12.4976 26.25 12.4976C25.2863 12.4976 24.415 12.8738 23.75 13.4726V13.1226C23.75 12.0888 22.9088 11.2476 21.875 11.2476H6.87501C5.84126 11.2476 5.00001 12.0888 5.00001 13.1226V16.8726C5.00001 19.9226 6.17876 22.8026 8.26251 24.9976H0.625007C0.372507 24.9976 0.143757 25.1501 0.0475072 25.3838C-0.0499928 25.6176 0.00375714 25.8863 0.182507 26.0651L1.58376 27.4663C2.25001 28.1313 3.04876 28.7476 4.37376 28.7476H24.3738C25.7 28.7476 26.4988 28.1313 27.1638 27.4663L28.565 26.0651C28.7438 25.8863 28.7975 25.6176 28.7 25.3838C28.6025 25.1501 28.375 24.9976 28.1225 24.9976H20.485C22.11 23.2863 23.17 21.1576 23.5613 18.8551C24.2463 19.5576 25.1963 19.9976 26.25 19.9976ZM26.25 13.7476C27.6288 13.7476 28.75 14.8688 28.75 16.2476C28.75 17.6263 27.6288 18.7476 26.25 18.7476C24.8713 18.7476 23.75 17.6263 23.75 16.2476C23.75 14.8688 24.8713 13.7476 26.25 13.7476Z" fill="#4A4A4A"/>
</g>
<defs>
<clipPath id="clip0_5_11579">
<rect width="30" height="30" fill="white"/>
</clipPath>
</defs>
</svg>
