<svg width="30" height="30" viewBox="0 0 30 30" fill="none" xmlns="http://www.w3.org/2000/svg">
<g clip-path="url(#clip0_5_11500)">
<path d="M29.8062 13.9239L23.7487 8.12893L23.75 8.12518V3.12518C23.75 2.78018 23.47 2.50018 23.125 2.50018H20.625C20.28 2.50018 20 2.78018 20 3.12518V4.54268L15.4325 0.173926C15.1912 -0.0573242 14.81 -0.0573242 14.5688 0.173926L0.19375 13.9239C0.0100001 14.1002 -0.0487499 14.3714 0.0462501 14.6077C0.14125 14.8452 0.37125 15.0002 0.62625 15.0002H3.75125V29.3752C3.75125 29.7202 4.03125 30.0002 4.37625 30.0002H15.0013V20.6252C15.0013 20.2802 15.2813 20.0002 15.6263 20.0002H21.8762C22.2212 20.0002 22.5012 20.2802 22.5012 20.6252V30.0002H25.6262C25.9712 30.0002 26.2512 29.7202 26.2512 29.3752V15.0002H29.3762C29.6312 15.0002 29.8612 14.8452 29.9562 14.6077C30.0487 14.3714 29.99 14.1002 29.8062 13.9239ZM12.4987 23.1252C12.4987 23.4702 12.2188 23.7502 11.8737 23.7502H6.87375C6.52875 23.7502 6.24875 23.4702 6.24875 23.1252V18.1252C6.24875 17.7802 6.52875 17.5002 6.87375 17.5002H11.8737C12.2188 17.5002 12.4987 17.7802 12.4987 18.1252V23.1252ZM14.9987 11.2502C13.62 11.2502 12.4987 10.1289 12.4987 8.75018C12.4987 7.37143 13.62 6.25018 14.9987 6.25018C16.3775 6.25018 17.4987 7.37143 17.4987 8.75018C17.4987 10.1289 16.3775 11.2502 14.9987 11.2502Z" fill="#4A4A4A"/>
</g>
<defs>
<clipPath id="clip0_5_11500">
<rect width="30" height="30" fill="white"/>
</clipPath>
</defs>
</svg>
