<svg width="60" height="60" viewBox="0 0 60 60" fill="none" xmlns="http://www.w3.org/2000/svg">
<path d="M53.75 10H6.25C2.805 10 0 12.805 0 16.25V43.75C0 47.195 2.805 50 6.25 50H53.75C57.195 50 60 47.195 60 43.75V16.25C60 12.805 57.195 10 53.75 10ZM22.05 32.21L7.05 44.71C6.8175 44.905 6.5325 45 6.25 45C5.89 45 5.535 44.8475 5.2875 44.55C4.845 44.02 4.9175 43.23 5.4475 42.7875L20.4475 30.2875C20.9775 29.8475 21.7675 29.92 22.21 30.4475C22.6525 30.98 22.58 31.77 22.05 32.21ZM30 32.5425C28.625 32.5425 27.2475 32.1325 26.0475 31.31L5.545 17.2825C4.975 16.8925 4.83 16.115 5.2175 15.545C5.605 14.975 6.3825 14.8275 6.955 15.22L27.4575 29.2475C29 30.3025 30.995 30.3025 32.54 29.2475L53.0425 15.22C53.615 14.8325 54.3925 14.975 54.78 15.545C55.17 16.115 55.025 16.8925 54.455 17.2825L33.9525 31.31C32.7525 32.1325 31.375 32.5425 30 32.5425ZM54.71 44.55C54.4625 44.8475 54.1075 45 53.75 45C53.4675 45 53.185 44.905 52.95 44.71L37.95 32.21C37.42 31.7675 37.3475 30.98 37.79 30.4475C38.2325 29.92 39.02 29.8475 39.5525 30.2875L54.5525 42.7875C55.08 43.23 55.1525 44.02 54.71 44.55Z" fill="black"/>
</svg>
