<svg width="40" height="40" viewBox="0 0 40 40" fill="none" xmlns="http://www.w3.org/2000/svg">
<path d="M9.16665 28.3332C8.70665 28.3332 8.33331 27.9598 8.33331 27.4998V10.8332C8.33331 8.5365 10.2016 6.6665 12.5 6.6665C12.9616 6.6665 13.3333 7.03984 13.3333 7.49984C13.3333 7.95984 12.9616 8.33317 12.5 8.33317C11.1216 8.33317 9.99998 9.45484 9.99998 10.8332V27.4998C9.99998 27.9598 9.62831 28.3332 9.16665 28.3332Z" fill="#4A4A4A"/>
<path d="M17.5 28.3332C17.04 28.3332 16.6666 27.9598 16.6666 27.4998V10.8332C16.6666 8.5365 18.535 6.6665 20.8333 6.6665C21.295 6.6665 21.6666 7.03984 21.6666 7.49984C21.6666 7.95984 21.295 8.33317 20.8333 8.33317C19.455 8.33317 18.3333 9.45484 18.3333 10.8332V27.4998C18.3333 27.9598 17.9616 28.3332 17.5 28.3332Z" fill="#4A4A4A"/>
<path d="M17.5 23.3332H9.16665C8.70665 23.3332 8.33331 22.9598 8.33331 22.4998C8.33331 22.0398 8.70665 21.6665 9.16665 21.6665H17.5C17.96 21.6665 18.3333 22.0398 18.3333 22.4998C18.3333 22.9598 17.9616 23.3332 17.5 23.3332Z" fill="#4A4A4A"/>
<path d="M17.5 13.3332H9.99996C9.53996 13.3332 9.16663 12.9598 9.16663 12.4998C9.16663 12.0398 9.53996 11.6665 9.99996 11.6665H17.5C17.9616 11.6665 18.3333 12.0398 18.3333 12.4998C18.3333 12.9598 17.9616 13.3332 17.5 13.3332Z" fill="#4A4A4A"/>
<path d="M17.5 18.3332H9.16665C8.70665 18.3332 8.33331 17.9598 8.33331 17.4998C8.33331 17.0398 8.70665 16.6665 9.16665 16.6665H17.5C17.96 16.6665 18.3333 17.0398 18.3333 17.4998C18.3333 17.9598 17.9616 18.3332 17.5 18.3332Z" fill="#4A4A4A"/>
<path d="M5.83332 19.9999C3.10999 19.9999 1.84499 18.0249 1.79332 17.9416C1.54999 17.5516 1.66832 17.0366 2.05832 16.7933C2.44165 16.5483 2.95665 16.6649 3.20332 17.0533C3.24499 17.1183 4.06999 18.3333 5.83332 18.3333C7.60665 18.3333 8.42999 17.1049 8.46332 17.0516C8.71499 16.6699 9.22499 16.5566 9.61165 16.8016C9.99665 17.0466 10.115 17.5549 9.87165 17.9433C9.82165 18.0249 8.55665 19.9999 5.83332 19.9999Z" fill="#4A4A4A"/>
<path d="M20.8333 19.9999C18.11 19.9999 16.845 18.0249 16.7933 17.9416C16.55 17.5516 16.6683 17.0366 17.0583 16.7933C17.4417 16.5483 17.9567 16.6649 18.2033 17.0533C18.245 17.1183 19.07 18.3333 20.8333 18.3333C22.6067 18.3333 23.43 17.1049 23.4633 17.0516C23.715 16.6699 24.225 16.5566 24.6117 16.8016C24.9967 17.0466 25.115 17.5549 24.8717 17.9433C24.8217 18.0249 23.5567 19.9999 20.8333 19.9999Z" fill="#4A4A4A"/>
<path d="M27.5 19.9999C24.7767 19.9999 23.5117 18.0249 23.46 17.9416C23.2167 17.5516 23.335 17.0366 23.725 16.7933C24.1083 16.5483 24.6233 16.6649 24.87 17.0533C24.9117 17.1183 25.7367 18.3333 27.5 18.3333C29.2733 18.3333 30.0967 17.1049 30.13 17.0516C30.3817 16.6699 30.8933 16.5566 31.2783 16.8016C31.6633 17.0466 31.7817 17.5549 31.5383 17.9433C31.4883 18.0249 30.2233 19.9999 27.5 19.9999Z" fill="#4A4A4A"/>
<path d="M34.1666 19.9999C31.4433 19.9999 30.1783 18.0249 30.1266 17.9416C29.8833 17.5516 30.0016 17.0366 30.3916 16.7933C30.7766 16.5483 31.29 16.6649 31.5366 17.0533C31.5783 17.1183 32.4033 18.3333 34.1666 18.3333C35.94 18.3333 36.7633 17.1049 36.7966 17.0516C37.0466 16.6699 37.56 16.5566 37.945 16.8016C38.33 17.0466 38.4483 17.5549 38.205 17.9433C38.155 18.0249 36.89 19.9999 34.1666 19.9999Z" fill="#4A4A4A"/>
<path d="M5.83332 26.6664C3.10999 26.6664 1.84499 24.6914 1.79332 24.6081C1.54999 24.2181 1.66832 23.7031 2.05832 23.4598C2.44165 23.2148 2.95665 23.3314 3.20332 23.7198C3.24499 23.7848 4.06999 24.9998 5.83332 24.9998C7.60665 24.9998 8.42999 23.7714 8.46332 23.7181C8.71499 23.3364 9.22499 23.2231 9.61165 23.4681C9.99665 23.7131 10.115 24.2214 9.87165 24.6098C9.82165 24.6914 8.55665 26.6664 5.83332 26.6664Z" fill="#4A4A4A"/>
<path d="M20.8333 26.6664C18.11 26.6664 16.845 24.6914 16.7933 24.6081C16.55 24.2181 16.6683 23.7031 17.0583 23.4598C17.4417 23.2148 17.9567 23.3314 18.2033 23.7198C18.245 23.7848 19.07 24.9998 20.8333 24.9998C22.6067 24.9998 23.43 23.7714 23.4633 23.7181C23.715 23.3364 24.225 23.2231 24.6117 23.4681C24.9967 23.7131 25.115 24.2214 24.8717 24.6098C24.8217 24.6914 23.5567 26.6664 20.8333 26.6664Z" fill="#4A4A4A"/>
<path d="M27.5 26.6664C24.7767 26.6664 23.5117 24.6914 23.46 24.6081C23.2167 24.2181 23.335 23.7031 23.725 23.4598C24.1083 23.2148 24.6233 23.3314 24.87 23.7198C24.9117 23.7848 25.7367 24.9998 27.5 24.9998C29.2733 24.9998 30.0967 23.7714 30.13 23.7181C30.3817 23.3364 30.8933 23.2231 31.2783 23.4681C31.6633 23.7131 31.7817 24.2214 31.5383 24.6098C31.4883 24.6914 30.2233 26.6664 27.5 26.6664Z" fill="#4A4A4A"/>
<path d="M20.8333 33.3332C18.11 33.3332 16.845 31.3582 16.7933 31.2748C16.55 30.8848 16.6683 30.3698 17.0583 30.1265C17.4417 29.8832 17.9567 29.9982 18.2033 30.3865C18.245 30.4515 19.07 31.6665 20.8333 31.6665C22.6067 31.6665 23.43 30.4382 23.4633 30.3848C23.715 30.0032 24.225 29.8898 24.6117 30.1348C24.9967 30.3798 25.115 30.8882 24.8717 31.2765C24.8217 31.3582 23.5567 33.3332 20.8333 33.3332Z" fill="#4A4A4A"/>
<path d="M14.1666 33.3332C11.4433 33.3332 10.1783 31.3582 10.1266 31.2748C9.8833 30.8848 10.0016 30.3698 10.3916 30.1265C10.775 29.8832 11.29 29.9982 11.5366 30.3865C11.5783 30.4515 12.4033 31.6665 14.1666 31.6665C15.94 31.6665 16.7633 30.4382 16.7966 30.3848C17.0483 30.0032 17.5583 29.8898 17.945 30.1348C18.33 30.3798 18.4483 30.8882 18.205 31.2765C18.155 31.3582 16.89 33.3332 14.1666 33.3332Z" fill="#4A4A4A"/>
<path d="M7.50001 33.3332C4.77667 33.3332 3.51167 31.3582 3.46001 31.2748C3.21667 30.8848 3.33501 30.3698 3.72501 30.1265C4.10834 29.8832 4.62334 29.9982 4.87001 30.3865C4.91167 30.4515 5.73667 31.6665 7.50001 31.6665C9.27334 31.6665 10.0967 30.4382 10.13 30.3848C10.3817 30.0032 10.8917 29.8898 11.2783 30.1348C11.6633 30.3798 11.7817 30.8882 11.5383 31.2765C11.4883 31.3582 10.2233 33.3332 7.50001 33.3332Z" fill="#4A4A4A"/>
<path d="M27.5 33.3332C24.7767 33.3332 23.5117 31.3582 23.46 31.2748C23.2167 30.8848 23.335 30.3698 23.725 30.1265C24.1083 29.8832 24.6233 29.9982 24.87 30.3865C24.9117 30.4515 25.7367 31.6665 27.5 31.6665C29.2733 31.6665 30.0967 30.4382 30.13 30.3848C30.3817 30.0032 30.8933 29.8898 31.2783 30.1348C31.6633 30.3798 31.7817 30.8882 31.5383 31.2765C31.4883 31.3582 30.2233 33.3332 27.5 33.3332Z" fill="#4A4A4A"/>
<path d="M34.1666 26.6664C31.4433 26.6664 30.1783 24.6914 30.1266 24.6081C29.8833 24.2181 30.0016 23.7031 30.3916 23.4598C30.7766 23.2148 31.29 23.3314 31.5366 23.7198C31.5783 23.7848 32.4033 24.9998 34.1666 24.9998C35.94 24.9998 36.7633 23.7714 36.7966 23.7181C37.0466 23.3364 37.56 23.2231 37.945 23.4681C38.33 23.7131 38.4483 24.2214 38.205 24.6098C38.155 24.6914 36.89 26.6664 34.1666 26.6664Z" fill="#4A4A4A"/>
</svg>
