<svg width="30" height="30" viewBox="0 0 30 30" fill="none" xmlns="http://www.w3.org/2000/svg">
<g clip-path="url(#clip0_104_5258)">
<path d="M0.429967 16.9187L3.41872 13.93L0.408717 15.0387C0.0862171 15.1575 -0.0800329 15.515 0.0374671 15.8387L0.429967 16.9187Z" fill="#4A4A4A"/>
<path d="M5.03749 29.5887C5.09374 29.745 5.21124 29.8725 5.36124 29.9412C5.44499 29.98 5.53499 30 5.62499 30C5.69874 30 5.77124 29.9875 5.84124 29.9612L7.82749 29.2287L3.23749 24.6387L5.03749 29.5887Z" fill="black"/>
<path d="M27.9025 14.7488L22.9587 19.6925L25.4087 18.79C25.73 18.6675 26.0925 18.835 26.2112 19.16C26.3312 19.4838 26.165 19.8438 25.8412 19.9625L22.7287 21.11C22.6575 21.1363 22.585 21.1488 22.5125 21.1488C22.2587 21.1488 22.0187 20.9925 21.9262 20.74C21.925 20.7363 21.9262 20.7325 21.925 20.7288L16.6862 25.9675L29.5912 21.2125C29.915 21.0938 30.0812 20.7363 29.9625 20.4125L27.9025 14.7488Z" fill="black"/>
<path d="M29.8173 10.1826L19.8173 0.182568C19.5735 -0.0611816 19.1773 -0.0611816 18.9335 0.182568L0.183545 18.9326C-0.0602051 19.1763 -0.0602051 19.5726 0.183545 19.8163L10.1835 29.8163C10.3048 29.9388 10.4648 30.0001 10.6248 30.0001C10.7848 30.0001 10.9448 29.9388 11.0673 29.8176L29.8173 11.0676C30.061 10.8226 30.061 10.4276 29.8173 10.1826ZM7.31729 17.3176L4.81729 19.8176C4.69479 19.9388 4.53479 20.0001 4.37479 20.0001C4.21479 20.0001 4.05479 19.9388 3.93229 19.8176C3.68854 19.5738 3.68854 19.1776 3.93229 18.9338L6.43229 16.4338C6.67604 16.1901 7.0723 16.1901 7.31605 16.4338C7.5598 16.6776 7.56104 17.0726 7.31729 17.3176ZM18.111 18.1113C17.6685 18.5538 17.0673 18.7663 16.3985 18.7663C15.2935 18.7663 14.0023 18.1876 12.9223 17.1063C12.1323 16.3163 11.5773 15.3713 11.361 14.4463C11.121 13.4151 11.3185 12.5176 11.9173 11.9176C12.516 11.3176 13.4135 11.1201 14.446 11.3613C15.371 11.5776 16.316 12.1313 17.106 12.9226C18.8423 14.6576 19.2848 16.9376 18.111 18.1113ZM26.0673 11.0676L23.5673 13.5676C23.4448 13.6888 23.2848 13.7501 23.1248 13.7501C22.9648 13.7501 22.8048 13.6888 22.6823 13.5676C22.4385 13.3238 22.4385 12.9276 22.6823 12.6838L25.1823 10.1838C25.426 9.94007 25.8223 9.94007 26.066 10.1838C26.3098 10.4276 26.311 10.8226 26.0673 11.0676Z" fill="black"/>
</g>
<defs>
<clipPath id="clip0_104_5258">
<rect width="30" height="30" fill="white"/>
</clipPath>
</defs>
</svg>
