<svg width="30" height="30" viewBox="0 0 30 30" fill="none" xmlns="http://www.w3.org/2000/svg">
<g clip-path="url(#clip0_5_11509)">
<path d="M28.125 14.9438H1.875C0.84125 14.9438 0 15.7851 0 16.8188C0 17.8526 0.84125 18.6938 1.875 18.6938H28.125C29.1588 18.6938 30 17.8526 30 16.8188C30 15.7851 29.1588 14.9438 28.125 14.9438Z" fill="#4A4A4A"/>
<path d="M28.2975 17.4676C27.9588 17.3726 27.6188 17.5651 27.525 17.8976L27.4763 18.0689H2.525L2.475 17.8976C2.38125 17.5651 2.03875 17.3751 1.7025 17.4676C1.37 17.5626 1.17875 17.9089 1.27375 18.2401L2.99625 24.2701C3.53 26.1389 5.26 27.4439 7.2025 27.4439H22.7963C24.74 27.4439 26.4688 26.1389 27.0025 24.2701L28.725 18.2401C28.8213 17.9089 28.6288 17.5626 28.2975 17.4676ZM7.20375 24.9439C6.37125 24.9439 5.62875 24.3851 5.40125 23.5839L4.59 20.7414C4.495 20.4089 4.6875 20.0639 5.01875 19.9689C5.35375 19.8739 5.6975 20.0676 5.79125 20.3989L6.6025 23.2414C6.68 23.5076 6.92625 23.6951 7.20375 23.6951C7.54875 23.6951 7.82875 23.9751 7.82875 24.3201C7.82875 24.6651 7.54875 24.9439 7.20375 24.9439Z" fill="#4A4A4A"/>
<path d="M6.875 29.9437C6.78125 29.9437 6.68625 29.9225 6.595 29.8775C6.28625 29.7225 6.16125 29.3475 6.315 29.0387L7.565 26.5387C7.72125 26.2287 8.095 26.1075 8.40375 26.2587C8.7125 26.4137 8.8375 26.7887 8.68375 27.0975L7.43375 29.5975C7.32375 29.8175 7.10375 29.9437 6.875 29.9437Z" fill="#4A4A4A"/>
<path d="M23.125 29.9441C22.8962 29.9441 22.6762 29.8178 22.5662 29.5991L21.3162 27.0991C21.1625 26.7903 21.2875 26.4153 21.5962 26.2603C21.905 26.1066 22.28 26.2303 22.435 26.5403L23.685 29.0403C23.8387 29.3491 23.7137 29.7241 23.405 29.8791C23.3138 29.9228 23.2187 29.9441 23.125 29.9441Z" fill="#4A4A4A"/>
<path d="M26.875 16.1939C26.53 16.1939 26.25 15.9139 26.25 15.5689V2.44393C26.25 1.81643 25.74 1.30643 25.1125 1.30643C24.8013 1.30643 24.515 1.42518 24.3012 1.64018L22.3175 3.62268C22.0738 3.86643 21.6775 3.86643 21.4337 3.62268C21.19 3.37893 21.19 2.98268 21.4337 2.73893L23.4175 0.755176C23.8687 0.303926 24.4687 0.0551758 25.1062 0.0551758C26.4312 0.0551758 27.5012 1.12643 27.5012 2.44268V15.5677C27.5 15.9139 27.22 16.1939 26.875 16.1939Z" fill="#4A4A4A"/>
<path d="M22.9425 3.36384L21.6925 2.11384C21.55 1.97134 21.3513 1.90509 21.1488 1.93884L18.0237 2.45134C17.7937 2.48884 17.605 2.65134 17.5312 2.87134C17.4575 3.09134 17.5137 3.33634 17.6762 3.50259L21.4263 7.36509C21.545 7.48884 21.7088 7.55509 21.8738 7.55509C21.9325 7.55509 21.9925 7.54634 22.0513 7.52884C22.2738 7.46384 22.4425 7.28009 22.4875 7.05259L23.1125 3.92759C23.1538 3.72384 23.09 3.51259 22.9425 3.36384Z" fill="#4A4A4A"/>
<path d="M13.125 9.94389C12.965 9.94389 12.805 9.88264 12.6825 9.76139C12.4387 9.51764 12.4387 9.12139 12.6825 8.87764L13.9325 7.62764C14.1763 7.38389 14.5725 7.38389 14.8163 7.62764C15.06 7.87139 15.06 8.26764 14.8163 8.51139L13.5662 9.76139C13.445 9.88264 13.285 9.94389 13.125 9.94389Z" fill="#4A4A4A"/>
<path d="M15.625 12.4439C15.465 12.4439 15.305 12.3826 15.1825 12.2614C14.9387 12.0176 14.9387 11.6214 15.1825 11.3776L16.4325 10.1276C16.6762 9.88389 17.0725 9.88389 17.3162 10.1276C17.56 10.3714 17.56 10.7676 17.3162 11.0114L16.0662 12.2614C15.945 12.3826 15.785 12.4439 15.625 12.4439Z" fill="#4A4A4A"/>
<path d="M16.875 8.69389C16.715 8.69389 16.555 8.63264 16.4325 8.51139C16.1887 8.26764 16.1887 7.87139 16.4325 7.62764L17.6825 6.37764C17.9262 6.13389 18.3225 6.13389 18.5662 6.37764C18.81 6.62139 18.81 7.01764 18.5662 7.26139L17.3162 8.51139C17.195 8.63264 17.035 8.69389 16.875 8.69389Z" fill="#4A4A4A"/>
</g>
<defs>
<clipPath id="clip0_5_11509">
<rect width="30" height="30" fill="white"/>
</clipPath>
</defs>
</svg>
