<svg width="30" height="30" viewBox="0 0 30 30" fill="none" xmlns="http://www.w3.org/2000/svg">
<g clip-path="url(#clip0_5_11546)">
<path d="M26.875 7.5H3.125C1.4025 7.5 0 8.9025 0 10.625V24.375C0 26.0975 1.4025 27.5 3.125 27.5H26.875C28.5975 27.5 30 26.0975 30 24.375V10.625C30 8.9025 28.5975 7.5 26.875 7.5ZM20 20.625C20 22.3475 18.5975 23.75 16.875 23.75H6.875C5.1525 23.75 3.75 22.3475 3.75 20.625V14.375C3.75 12.6525 5.1525 11.25 6.875 11.25H16.875C18.5975 11.25 20 12.6525 20 14.375V20.625ZM26.25 24.375C26.25 24.72 25.97 25 25.625 25H23.125C22.78 25 22.5 24.72 22.5 24.375V19.375C22.5 19.03 22.78 18.75 23.125 18.75H25.625C25.97 18.75 26.25 19.03 26.25 19.375V24.375ZM25.625 17.5H23.125C22.78 17.5 22.5 17.22 22.5 16.875C22.5 16.53 22.78 16.25 23.125 16.25H25.625C25.97 16.25 26.25 16.53 26.25 16.875C26.25 17.22 25.97 17.5 25.625 17.5ZM25.625 15H23.125C22.78 15 22.5 14.72 22.5 14.375C22.5 14.03 22.78 13.75 23.125 13.75H25.625C25.97 13.75 26.25 14.03 26.25 14.375C26.25 14.72 25.97 15 25.625 15ZM25.625 12.5H23.125C22.78 12.5 22.5 12.22 22.5 11.875C22.5 11.53 22.78 11.25 23.125 11.25H25.625C25.97 11.25 26.25 11.53 26.25 11.875C26.25 12.22 25.97 12.5 25.625 12.5Z" fill="#4A4A4A"/>
<path d="M25 20H23.75V23.75H25V20Z" fill="#4A4A4A"/>
<path d="M4.375 30C4.03 30 3.75 29.72 3.75 29.375V26.875C3.75 26.53 4.03 26.25 4.375 26.25C4.72 26.25 5 26.53 5 26.875V29.375C5 29.72 4.72 30 4.375 30Z" fill="#4A4A4A"/>
<path d="M25.625 30C25.28 30 25 29.72 25 29.375V26.875C25 26.53 25.28 26.25 25.625 26.25C25.97 26.25 26.25 26.53 26.25 26.875V29.375C26.25 29.72 25.97 30 25.625 30Z" fill="#4A4A4A"/>
<path d="M13.125 8.75004C12.965 8.75004 12.805 8.68879 12.6825 8.56754L5.18251 1.06754C4.93876 0.823789 4.93876 0.427539 5.18251 0.183789C5.42626 -0.0599609 5.82251 -0.0599609 6.06626 0.183789L13.125 7.24129L20.1825 0.183789C20.4263 -0.0599609 20.8225 -0.0599609 21.0663 0.183789C21.31 0.427539 21.31 0.823789 21.0663 1.06754L13.5663 8.56754C13.445 8.68879 13.285 8.75004 13.125 8.75004Z" fill="#4A4A4A"/>
</g>
<defs>
<clipPath id="clip0_5_11546">
<rect width="30" height="30" fill="white"/>
</clipPath>
</defs>
</svg>
