<svg width="60" height="60" viewBox="0 0 60 60" fill="none" xmlns="http://www.w3.org/2000/svg">
<g clip-path="url(#clip0_11_5528)">
<path d="M30 0C13.4575 0 0 13.4575 0 30C0 46.5425 13.4575 60 30 60C36.67 60 42.985 57.8575 48.325 53.75C50.445 51.89 50.4075 49.235 49.4275 47.43C48.8075 46.2875 47.8625 45.505 46.765 45.12L47.2675 44.5575C48.0175 43.715 48.3475 42.5925 48.17 41.48C47.995 40.3675 47.335 39.4 46.3625 38.8275L39.76 34.9625C38.2625 34.0875 36.2175 34.41 35.065 35.705L33.6 37.3525C33.36 37.6225 33.0275 37.7725 32.6675 37.7725C32.24 37.7725 31.86 37.5675 31.625 37.2125L23.5775 25.07C23.3725 24.7625 23.3175 24.395 23.4175 24.04C23.5175 23.6825 23.7575 23.4025 24.095 23.2475L26.3975 22.1775C28.015 21.43 28.885 19.6275 28.4675 17.8975L26.675 10.4625C26.14 8.24 23.545 6.9675 21.4525 7.94L19.3975 8.8925C16.36 10.3025 14.1225 12.965 13.2575 16.2L12.8825 17.61C12.205 20.1475 12.44 22.8575 13.545 25.24L15.3925 29.225C18.1025 35.0725 21.8025 40.3325 26.3875 44.8625L27.9125 46.3675C30.1775 48.605 33.175 49.895 36.3575 49.9975L36.77 50.005C39.525 50.005 42.18 49.0925 44.3475 47.46C44.39 47.4525 44.4325 47.4625 44.4775 47.45C46.1775 46.975 47.0175 48.23 47.2325 48.625C47.7375 49.56 47.7625 50.925 46.7425 51.825C41.9075 55.54 36.12 57.505 30.005 57.505C14.8425 57.505 2.505 45.1675 2.505 30.005C2.505 14.8425 14.8425 2.505 30.005 2.505C45.1675 2.505 57.505 14.8425 57.505 30.005C57.505 30.695 58.065 31.255 58.755 31.255C59.445 31.255 60.005 30.695 60.005 30.005C60 13.4575 46.54 0 30 0Z" fill="black"/>
</g>
<defs>
<clipPath id="clip0_11_5528">
<rect width="60" height="60" fill="white"/>
</clipPath>
</defs>
</svg>
