<svg width="30" height="30" viewBox="0 0 30 30" fill="none" xmlns="http://www.w3.org/2000/svg">
<path d="M20 20H5V21.25H20V20Z" fill="#4A4A4A"/>
<path d="M5 22.5V25.625C5 25.97 5.28 26.25 5.625 26.25H19.375C19.72 26.25 20 25.97 20 25.625V22.5H5Z" fill="#4A4A4A"/>
<path d="M21.875 3.75H9.375C6.9625 3.75 5 5.7125 5 8.125V18.75H20V6.875C20 5.84125 20.8413 5 21.875 5C22.22 5 22.5 4.72 22.5 4.375C22.5 4.03 22.22 3.75 21.875 3.75Z" fill="#4A4A4A"/>
<path d="M5.625 7.5H3.125C2.78 7.5 2.5 7.22 2.5 6.875C2.5 6.53 2.78 6.25 3.125 6.25H5.625C5.97 6.25 6.25 6.53 6.25 6.875C6.25 7.22 5.97 7.5 5.625 7.5Z" fill="#4A4A4A"/>
<path d="M21.875 6.25C21.6875 6.25 21.525 6.3375 21.41 6.4675L21.25 7.1875V7.5H25V6.875C25 5.1525 23.5987 3.75 21.875 3.75C21.53 3.75 21.25 4.03 21.25 4.375C21.25 4.67375 21.4625 4.91125 21.7425 4.97375L21.7337 5.015C21.78 5.01125 21.8263 5 21.875 5C22.22 5 22.5 5.28 22.5 5.625C22.5 5.97 22.22 6.25 21.875 6.25Z" fill="#4A4A4A"/>
<path d="M1.875 8.75C2.91053 8.75 3.75 7.91053 3.75 6.875C3.75 5.83947 2.91053 5 1.875 5C0.839466 5 0 5.83947 0 6.875C0 7.91053 0.839466 8.75 1.875 8.75Z" fill="#4A4A4A"/>
<path d="M28.125 8.75C29.1605 8.75 30 7.91053 30 6.875C30 5.83947 29.1605 5 28.125 5C27.0895 5 26.25 5.83947 26.25 6.875C26.25 7.91053 27.0895 8.75 28.125 8.75Z" fill="#4A4A4A"/>
<path d="M25 8.75H21.25V11.25H25V8.75Z" fill="#4A4A4A"/>
<path d="M21.25 12.5V16.25H24.375C24.72 16.25 25 15.97 25 15.625V12.5H21.25Z" fill="#4A4A4A"/>
<path d="M26.875 6.25H21.875C21.5312 6.25 21.25 6.53 21.25 6.875V7.5H26.875C27.22 7.5 27.5 7.22 27.5 6.875C27.5 6.53 27.22 6.25 26.875 6.25Z" fill="#4A4A4A"/>
</svg>
